<?xml version="1.0" standalone="no"?>
<!DOCTYPE svg PUBLIC "-//W3C//DTD SVG 20010904//EN"
 "http://www.w3.org/TR/2001/REC-SVG-20010904/DTD/svg10.dtd">
<svg version="1.0" xmlns="http://www.w3.org/2000/svg"
 width="1024.000000pt" height="1024.000000pt" viewBox="0 0 1024.000000 1024.000000"
 preserveAspectRatio="xMidYMid meet">
<metadata>
Created by potrace 1.14, written by Peter Selinger 2001-2017
</metadata>
<g transform="translate(0.000000,1024.000000) scale(0.100000,-0.100000)"
fill="#000000" stroke="none">
<path d="M4826 10233 c-1 -1 -36 -5 -78 -8 -42 -3 -100 -8 -130 -11 -29 -3
-71 -7 -93 -9 -22 -2 -53 -6 -70 -9 -16 -2 -49 -8 -72 -11 -23 -3 -57 -8 -75
-11 -18 -3 -49 -7 -68 -9 -19 -2 -35 -4 -35 -5 0 -2 -19 -6 -63 -14 -26 -5
-118 -25 -192 -41 -8 -2 -44 -11 -80 -20 -100 -26 -104 -27 -122 -28 -10 -1
-18 -5 -18 -9 0 -4 -8 -7 -17 -6 -10 0 -44 -9 -77 -21 -32 -11 -62 -18 -67
-15 -5 3 -9 0 -9 -6 0 -7 -7 -9 -16 -6 -10 4 -13 2 -8 -6 5 -7 0 -9 -14 -6
-12 4 -22 3 -22 0 0 -8 -121 -48 -132 -44 -5 1 -8 -3 -8 -8 0 -6 -6 -10 -12
-8 -7 1 -39 -10 -71 -25 -32 -14 -61 -26 -65 -25 -4 1 -21 -5 -38 -15 -17 -9
-34 -13 -38 -10 -3 4 -6 1 -6 -6 0 -7 -4 -9 -10 -6 -5 3 -10 1 -10 -5 0 -7 -7
-10 -15 -6 -8 3 -15 2 -15 -2 0 -9 -94 -50 -96 -42 0 3 -8 -3 -18 -13 -10 -9
-22 -15 -27 -12 -5 4 -9 1 -9 -6 0 -7 -3 -9 -7 -6 -3 4 -14 0 -24 -9 -9 -8
-26 -16 -37 -17 -11 0 -19 -4 -16 -8 4 -7 -44 -24 -58 -21 -5 1 -8 -2 -8 -8 0
-5 -26 -22 -57 -36 -32 -15 -61 -32 -64 -37 -4 -5 -12 -6 -18 -3 -6 4 -11 3
-11 -2 0 -5 -17 -17 -37 -28 -21 -10 -40 -21 -43 -24 -14 -14 -60 -39 -60 -33
0 5 -5 0 -11 -9 -5 -10 -15 -18 -20 -18 -6 0 -24 -9 -40 -21 -16 -11 -29 -18
-29 -15 0 3 -12 -6 -27 -20 -14 -13 -28 -22 -30 -20 -3 2 -12 -2 -21 -10 -10
-8 -20 -14 -24 -14 -5 0 -17 -8 -27 -17 -33 -30 -50 -43 -56 -43 -3 0 -15 -9
-27 -20 -12 -10 -26 -17 -31 -13 -6 3 -7 1 -3 -5 6 -11 -6 -16 -27 -13 -4 0
-6 -5 -5 -11 2 -7 -3 -12 -9 -10 -7 1 -13 -2 -13 -8 0 -5 -17 -21 -38 -34 -22
-13 -46 -32 -55 -41 -10 -9 -17 -14 -17 -11 0 3 -11 -5 -24 -17 -45 -42 -78
-67 -87 -67 -6 0 -7 -5 -3 -12 5 -8 2 -9 -10 -5 -9 4 -15 3 -13 -1 3 -4 -5
-16 -16 -27 -11 -11 -16 -13 -12 -5 4 8 -9 -2 -29 -24 -20 -21 -36 -35 -36
-30 0 5 -7 -2 -16 -14 -8 -12 -20 -20 -25 -16 -5 3 -8 0 -7 -8 2 -7 -3 -12
-10 -10 -6 1 -11 -1 -10 -5 2 -5 0 -9 -4 -11 -16 -6 -64 -57 -60 -64 2 -5 -2
-8 -8 -8 -6 0 -25 -15 -43 -32 -17 -18 -36 -32 -42 -30 -5 2 -7 1 -3 -3 9 -9
-23 -45 -34 -39 -5 3 -7 2 -6 -3 2 -5 -27 -39 -63 -76 -37 -37 -65 -67 -62
-67 2 0 -18 -22 -45 -49 -28 -28 -47 -52 -44 -55 2 -3 -2 -8 -11 -12 -8 -3
-28 -23 -42 -45 -15 -21 -32 -36 -38 -32 -6 3 -7 1 -3 -5 3 -6 -2 -15 -11 -21
-10 -6 -15 -11 -11 -11 5 0 0 -8 -10 -18 -9 -10 -28 -33 -42 -51 -14 -18 -30
-38 -36 -44 -5 -7 -13 -20 -17 -30 -4 -11 -12 -15 -19 -11 -7 4 -10 4 -6 -1 4
-4 0 -14 -10 -22 -10 -9 -11 -11 -2 -7 8 4 0 -10 -18 -32 -18 -21 -38 -46 -45
-54 -7 -8 -11 -16 -9 -18 2 -2 -6 -12 -18 -22 -12 -10 -21 -22 -21 -27 1 -4
-6 -16 -14 -26 -8 -9 -15 -21 -15 -26 0 -5 -10 -16 -22 -25 -13 -9 -16 -14 -8
-10 11 6 11 2 -3 -13 -9 -11 -17 -25 -17 -32 0 -6 -7 -14 -15 -17 -8 -4 -15
-12 -15 -18 0 -7 -9 -22 -20 -34 -11 -12 -20 -26 -20 -32 0 -6 -13 -31 -30
-55 -16 -24 -30 -48 -30 -54 0 -6 -4 -11 -10 -11 -5 0 -10 -5 -10 -12 0 -6
-12 -27 -27 -46 -15 -20 -20 -32 -12 -27 10 6 9 3 -2 -11 -9 -10 -20 -29 -23
-41 -4 -13 -12 -23 -17 -23 -6 0 -7 -5 -4 -10 3 -6 -1 -13 -9 -16 -9 -3 -14
-10 -11 -14 6 -9 -26 -70 -37 -70 -4 0 -5 -6 -2 -14 3 -7 -2 -20 -10 -29 -9
-9 -16 -18 -16 -22 0 -3 -9 -25 -19 -48 -11 -23 -35 -77 -54 -119 -19 -42 -33
-79 -29 -82 3 -3 -1 -6 -8 -6 -7 0 -10 -3 -7 -7 4 -3 3 -11 -1 -17 -5 -6 -18
-36 -29 -66 -12 -30 -25 -64 -29 -75 -4 -11 -8 -22 -9 -25 -1 -3 -5 -14 -9
-25 -17 -45 -19 -50 -21 -57 -2 -5 -4 -10 -5 -13 -1 -3 -3 -8 -4 -12 -2 -7
-15 -51 -32 -103 -3 -8 -5 -15 -4 -15 0 0 -8 -25 -19 -57 -11 -31 -17 -59 -14
-62 4 -3 2 -6 -3 -6 -5 0 -11 -8 -12 -17 -2 -21 -10 -57 -12 -60 -2 -2 -4 -7
-5 -13 -1 -5 -4 -12 -5 -15 -1 -3 -3 -8 -4 -12 -8 -32 -17 -72 -21 -90 -3 -13
-7 -31 -9 -40 -7 -26 -46 -214 -51 -243 -2 -14 -7 -43 -11 -65 -8 -48 -12 -70
-14 -70 -1 0 -3 -18 -5 -40 -1 -22 -6 -62 -10 -90 -32 -237 -38 -337 -38 -660
1 -264 5 -379 18 -486 3 -25 7 -65 9 -90 3 -24 10 -78 16 -119 6 -41 13 -91
16 -110 6 -48 10 -72 28 -165 9 -44 17 -89 19 -100 2 -11 7 -27 10 -35 3 -8 8
-28 11 -45 3 -16 10 -48 15 -69 5 -22 9 -42 9 -45 -1 -3 4 -19 10 -34 7 -15
11 -31 10 -35 -1 -4 2 -14 5 -22 10 -24 40 -134 42 -150 0 -9 4 -20 7 -25 14
-22 47 -128 43 -136 -3 -4 -1 -9 5 -11 5 -1 11 -14 12 -28 2 -14 6 -27 9 -30
7 -6 90 -221 91 -237 1 -7 6 -13 11 -13 5 0 6 -7 3 -16 -3 -8 -2 -12 4 -9 5 3
12 -10 16 -30 3 -19 10 -35 15 -35 5 0 9 -6 10 -12 0 -7 11 -35 24 -63 13 -27
21 -54 18 -60 -4 -5 -3 -7 1 -3 10 9 137 -243 129 -256 -3 -5 -1 -6 5 -2 14 8
36 -30 26 -46 -4 -6 -3 -8 4 -4 6 3 13 -3 17 -14 3 -11 22 -42 41 -70 20 -29
36 -60 37 -70 1 -10 4 -17 8 -15 3 3 12 -8 20 -23 8 -15 22 -36 32 -47 10 -10
15 -25 12 -33 -2 -7 0 -10 5 -7 9 6 14 -8 11 -28 -1 -5 3 -6 8 -3 5 3 16 -5
25 -19 19 -29 20 -39 4 -29 -7 4 -8 3 -4 -5 4 -6 11 -9 16 -6 10 6 32 -29 25
-39 -3 -3 -2 -4 1 -2 10 7 75 -84 69 -95 -4 -5 -1 -8 7 -7 7 2 12 -5 12 -14
-1 -10 2 -16 6 -15 11 3 50 -44 45 -54 -3 -4 0 -11 6 -15 8 -5 10 -2 5 7 -4 8
1 3 12 -11 11 -13 18 -29 15 -35 -4 -5 -3 -7 2 -3 9 8 82 -80 77 -94 -1 -5 1
-7 6 -4 9 6 58 -54 54 -67 -1 -4 3 -6 9 -5 6 2 14 -3 17 -11 3 -9 0 -11 -8 -6
-9 5 -11 4 -6 -4 4 -6 11 -9 16 -6 12 7 101 -95 94 -107 -4 -6 -3 -8 3 -5 12
7 269 -252 265 -267 -2 -6 0 -8 3 -4 12 12 47 -12 41 -28 -3 -9 -2 -12 5 -9
14 9 50 -25 42 -39 -3 -6 -3 -8 2 -4 11 11 36 -12 28 -25 -3 -6 -1 -7 6 -3 6
4 17 1 25 -6 7 -7 34 -30 60 -52 25 -21 43 -42 40 -47 -3 -5 1 -7 8 -4 7 3 27
-8 45 -23 56 -49 71 -60 93 -72 13 -7 19 -17 16 -26 -3 -9 -1 -12 4 -9 14 8
221 -136 213 -148 -3 -6 -1 -7 5 -3 6 3 37 -11 69 -32 53 -36 207 -130 286
-176 99 -57 396 -202 527 -256 30 -13 73 -31 95 -40 132 -57 549 -189 685
-216 14 -3 43 -10 65 -16 22 -5 51 -12 65 -14 14 -3 72 -14 130 -25 58 -11
121 -23 140 -25 19 -3 87 -11 150 -20 63 -8 156 -17 205 -21 50 -3 108 -8 130
-12 48 -8 578 -6 650 2 28 4 84 9 125 12 189 14 470 59 695 111 61 14 117 27
125 29 62 14 419 125 465 145 11 5 72 29 135 54 63 25 133 53 155 62 22 10 42
18 45 19 18 4 313 154 395 201 55 31 109 62 120 68 106 60 372 240 510 345
135 103 339 280 479 417 85 84 270 284 331 360 17 20 35 42 41 48 5 6 56 72
112 146 56 74 106 140 110 145 24 29 186 279 198 305 6 13 80 141 104 180 5 8
22 40 37 70 15 30 31 57 36 58 4 2 7 8 7 14 0 6 24 61 53 122 47 98 67 141
121 271 7 17 19 46 26 65 7 19 19 49 26 67 8 17 14 37 14 45 0 8 3 18 7 21 5
6 40 96 44 117 1 3 3 10 5 15 1 6 15 51 29 100 15 50 31 104 37 120 5 17 12
41 14 55 3 14 10 43 16 65 14 50 10 33 46 205 38 182 68 377 83 545 6 72 15
139 20 150 5 11 8 38 6 60 -2 22 1 48 6 59 6 13 6 16 -2 12 -13 -9 -13 -9 -2
31 6 20 6 35 0 38 -5 4 -5 13 0 23 10 20 12 274 2 268 -4 -3 -7 4 -7 14 0 10
3 17 6 15 3 -2 6 9 5 25 0 15 -3 26 -6 24 -3 -2 -5 34 -3 79 2 49 0 74 -5 62
-5 -13 -10 15 -15 85 -9 128 -11 146 -41 355 -24 166 -92 466 -147 650 -53
177 -129 391 -195 543 -24 56 -41 108 -37 115 4 6 3 9 -1 4 -5 -4 -48 70 -95
165 -96 192 -114 224 -153 285 -15 24 -27 45 -27 48 0 6 -37 65 -99 158 -25
38 -54 83 -64 100 -17 29 -71 103 -97 135 -6 7 -8 18 -4 25 4 6 4 9 -1 5 -4
-4 -18 6 -31 21 -26 31 -31 47 -12 35 7 -4 8 -3 4 4 -4 6 -12 9 -20 6 -7 -3
-17 6 -23 18 -6 13 -32 47 -57 76 -25 30 -43 59 -39 65 3 7 3 9 -2 5 -4 -4
-14 -3 -22 3 -16 14 -18 33 -1 23 7 -4 8 -3 4 4 -4 6 -13 9 -21 5 -9 -3 -15 1
-15 9 0 7 -9 19 -21 26 -12 8 -18 19 -15 28 3 8 2 13 -3 10 -12 -8 -113 103
-105 116 4 6 3 8 -3 5 -13 -8 -65 47 -56 59 5 5 4 6 -1 2 -10 -8 -192 170
-188 184 1 5 -2 6 -8 3 -12 -8 -41 25 -34 37 3 4 -1 5 -9 2 -8 -3 -21 3 -28
13 -8 10 -41 40 -74 67 -75 63 -101 88 -97 99 1 5 -2 6 -7 3 -12 -8 -82 49
-73 59 4 5 2 5 -5 2 -6 -4 -27 8 -47 27 -20 18 -36 31 -36 29 0 -2 -16 8 -35
23 -19 14 -32 30 -29 35 3 5 -1 6 -9 4 -7 -3 -25 5 -40 19 -14 13 -28 21 -31
18 -3 -3 -6 -1 -6 5 0 5 -12 15 -26 21 -14 7 -22 17 -19 22 4 6 -1 7 -11 3
-13 -5 -15 -3 -9 8 4 8 5 11 0 7 -12 -11 -47 11 -39 25 4 7 4 9 -1 5 -12 -11
-67 21 -59 34 5 7 2 8 -6 3 -8 -5 -18 -2 -26 9 -7 10 -16 18 -21 18 -22 2 -52
22 -46 32 3 6 3 8 -2 4 -9 -9 -86 32 -80 42 2 3 -6 7 -18 7 -12 1 -27 9 -33
18 -7 9 -16 17 -21 17 -12 1 -77 32 -83 40 -3 3 -31 18 -62 32 -32 15 -58 30
-58 35 0 5 -6 8 -12 8 -7 -1 -65 24 -128 54 -63 31 -132 62 -152 69 -20 8 -34
18 -31 23 3 6 1 7 -5 3 -6 -3 -36 5 -68 19 -31 14 -63 25 -70 25 -8 0 -14 5
-14 10 0 6 -3 9 -7 8 -15 -3 -93 25 -93 34 0 5 -4 7 -10 3 -5 -3 -26 2 -47 11
-21 9 -47 18 -58 19 -11 2 -33 9 -50 16 -16 7 -34 13 -40 14 -5 2 -57 16 -115
33 -58 16 -118 33 -135 38 -36 9 -43 11 -52 14 -5 1 -11 2 -15 1 -4 0 -20 4
-35 10 -15 6 -39 12 -53 14 -14 2 -71 13 -126 24 -56 11 -132 25 -170 31 -38
6 -82 13 -99 16 -34 6 -82 12 -140 18 -22 2 -67 7 -100 11 -33 3 -89 9 -125
11 -68 5 -649 12 -654 7z"/>
<path d="M9776 2973 c-6 -14 -5 -15 5 -6 7 7 10 15 7 18 -3 3 -9 -2 -12 -12z"/>
</g>
</svg>
